<?xml version="1.0" encoding="iso-8859-1"?>
<!-- Generator: Adobe Illustrator 16.0.0, SVG Export Plug-In . SVG Version: 6.00 Build 0)  -->
<!DOCTYPE svg PUBLIC "-//W3C//DTD SVG 1.1//EN" "http://www.w3.org/Graphics/SVG/1.1/DTD/svg11.dtd">
<svg version="1.1" id="Capa_1" xmlns="http://www.w3.org/2000/svg" xmlns:xlink="http://www.w3.org/1999/xlink" x="0px" y="0px"
	 width="949.998px" height="949.998px" viewBox="0 0 949.998 949.998" style="enable-background:new 0 0 949.998 949.998;"
	 xml:space="preserve">
<g>
	<g>
		<path d="M85.377,949.998H864.62c21.646,0,39.195-17.547,39.195-39.193V685.332c0-21.646-17.549-39.193-39.195-39.193H595.622
			l-80.506,74.125c-10.965,10.096-25.213,15.656-40.118,15.656c-14.905,0-29.152-5.561-40.117-15.656l-80.506-74.125H85.377
			c-21.647,0-39.195,17.547-39.195,39.193v225.473C46.183,932.451,63.73,949.998,85.377,949.998z M659.751,850.285h141.084
			c6.977,0,12.633,5.656,12.633,12.635c0,6.977-5.656,12.633-12.633,12.633H659.751c-6.977,0-12.633-5.656-12.633-12.633
			C647.118,855.941,652.774,850.285,659.751,850.285z"/>
		<path d="M231.622,498.77l160.055,147.369l60.319,55.537c6.5,5.984,14.751,8.977,23.003,8.977c8.252,0,16.502-2.992,23.002-8.977
			l60.32-55.537L718.376,498.77c9.182-8.455,3.201-23.784-9.281-23.784h-58.826V31.97c0-17.657-14.312-31.97-31.971-31.97H330.016
			c-16.728,0-30.287,13.561-30.287,30.288v444.698h-58.826C228.421,474.986,222.438,490.314,231.622,498.77z"/>
	</g>
</g>
<g>
</g>
<g>
</g>
<g>
</g>
<g>
</g>
<g>
</g>
<g>
</g>
<g>
</g>
<g>
</g>
<g>
</g>
<g>
</g>
<g>
</g>
<g>
</g>
<g>
</g>
<g>
</g>
<g>
</g>
</svg>
